<svg width="50" height="50" viewBox="0 0 50 50" fill="none" xmlns="http://www.w3.org/2000/svg">
<rect width="50" height="50" rx="25" fill="#1364FF"/>
<g clip-path="url(#clip0_1003_15)">
<path d="M27.4094 25.6875H30.8125C32.2712 25.6875 33.6701 25.108 34.7016 24.0766C35.733 23.0451 36.3125 21.6462 36.3125 20.1875C36.3125 18.7288 35.733 17.3299 34.7016 16.2984C33.6701 15.267 32.2712 14.6875 30.8125 14.6875H20.8438C20.2967 14.6875 19.7721 14.9048 19.3853 15.2916C18.9985 15.6784 18.7812 16.203 18.7812 16.75C18.7812 17.297 18.9985 17.8216 19.3853 18.2084C19.7721 18.5952 20.2967 18.8125 20.8438 18.8125H22.9062C23.4533 18.8125 23.9779 18.5952 24.3647 18.2084C24.7515 17.8216 24.9688 17.297 24.9688 16.75V16.0625H30.8125C31.9065 16.0625 32.9557 16.4971 33.7293 17.2707C34.5029 18.0443 34.9375 19.0935 34.9375 20.1875C34.9375 21.2815 34.5029 22.3307 33.7293 23.1043C32.9557 23.8779 31.9065 24.3125 30.8125 24.3125H27.9044C28.0097 23.8618 28.0628 23.4004 28.0625 22.9375V21.5625C28.0625 21.3802 27.9901 21.2053 27.8611 21.0764C27.7322 20.9474 27.5573 20.875 27.375 20.875H16.375C16.1927 20.875 16.0178 20.9474 15.8889 21.0764C15.7599 21.2053 15.6875 21.3802 15.6875 21.5625V22.9375C15.6928 23.9092 15.9284 24.8658 16.375 25.7287C15.9371 26.3125 15.6963 27.0204 15.6875 27.75C15.6875 28.6617 16.0497 29.536 16.6943 30.1807C17.0135 30.4999 17.3925 30.7531 17.8095 30.9258C18.2266 31.0986 18.6736 31.1875 19.125 31.1875H21.1875V31.875H19.8125C19.3567 31.875 18.9195 32.0561 18.5972 32.3784C18.2748 32.7007 18.0938 33.1379 18.0938 33.5938C18.0938 34.0496 18.2748 34.4868 18.5972 34.8091C18.9195 35.1314 19.3567 35.3125 19.8125 35.3125H23.9375C24.2716 35.3115 24.5982 35.2135 24.8777 35.0304C25.1571 34.8473 25.3774 34.5871 25.5119 34.2812H29.7744C30.2103 34.2766 30.6353 34.1444 30.9971 33.9012C31.3588 33.6579 31.6415 33.3142 31.8103 32.9122C31.9792 32.5103 32.0267 32.0678 31.9471 31.6391C31.8676 31.2105 31.6643 30.8146 31.3625 30.5C31.1578 30.2843 30.9115 30.1122 30.6386 29.9941C30.3657 29.8759 30.0718 29.8142 29.7744 29.8125H22.5625V29.0838C23.5898 28.9676 24.5716 28.596 25.4183 28.0027C26.265 27.4094 26.9495 26.6135 27.4094 25.6875ZM23.5938 16.75C23.5938 16.9323 23.5213 17.1072 23.3924 17.2361C23.2635 17.3651 23.0886 17.4375 22.9062 17.4375H20.8438C20.6614 17.4375 20.4865 17.3651 20.3576 17.2361C20.2287 17.1072 20.1562 16.9323 20.1562 16.75C20.1562 16.5677 20.2287 16.3928 20.3576 16.2639C20.4865 16.1349 20.6614 16.0625 20.8438 16.0625H23.5938V16.75ZM19.125 29.8125C18.7886 29.8117 18.4575 29.7286 18.1606 29.5706C17.8637 29.4125 17.6099 29.1842 17.4215 28.9056C17.233 28.6269 17.1156 28.3064 17.0794 27.972C17.0432 27.6376 17.0893 27.2994 17.2138 26.9869C18.2245 28.1645 19.6449 28.914 21.1875 29.0838V29.8125H19.125ZM23.9375 33.9375H19.8125C19.7213 33.9375 19.6339 33.9013 19.5694 33.8368C19.505 33.7724 19.4688 33.6849 19.4688 33.5938C19.4688 33.5026 19.505 33.4151 19.5694 33.3507C19.6339 33.2862 19.7213 33.25 19.8125 33.25H23.9375C24.0287 33.25 24.1161 33.2862 24.1806 33.3507C24.245 33.4151 24.2812 33.5026 24.2812 33.5938C24.2812 33.6849 24.245 33.7724 24.1806 33.8368C24.1161 33.9013 24.0287 33.9375 23.9375 33.9375ZM29.7744 31.1875C29.8873 31.1863 29.9992 31.2082 30.1033 31.2519C30.2073 31.2957 30.3013 31.3603 30.3794 31.4419C30.4603 31.5204 30.5245 31.6145 30.5682 31.7185C30.6119 31.8224 30.6342 31.9341 30.6337 32.0469C30.6337 32.2748 30.5432 32.4934 30.382 32.6545C30.2209 32.8157 30.0023 32.9062 29.7744 32.9062H25.5119C25.3774 32.6004 25.1571 32.3402 24.8777 32.1571C24.5982 31.974 24.2716 31.876 23.9375 31.875H22.5625V31.1875H29.7744ZM21.875 27.75C20.5986 27.75 19.3746 27.243 18.472 26.3405C17.5695 25.4379 17.0625 24.2139 17.0625 22.9375V22.25H26.6875V22.9375C26.6875 24.2139 26.1805 25.4379 25.278 26.3405C24.3754 27.243 23.1514 27.75 21.875 27.75Z" fill="white"/>
<path d="M21.1875 22.9375H19.125V24.3125H21.1875V22.9375Z" fill="white"/>
<path d="M24.625 22.9375H22.5625V24.3125H24.625V22.9375Z" fill="white"/>
</g>
<defs>
<clipPath id="clip0_1003_15">
<rect width="22" height="22" fill="white" transform="translate(15 14)"/>
</clipPath>
</defs>
</svg>
